<?xml version="1.0" encoding="UTF-8"?><svg id="uuid-10b4abb5-ea56-4ae3-b25e-1177668bd0d9" xmlns="http://www.w3.org/2000/svg" viewBox="0 0 12.835 12.835"><path d="M8.274,6.417l4.176-4.177c.514-.513.514-1.343,0-1.855-.514-.514-1.343-.514-1.855,0l-4.177,4.176L2.241.385C1.727-.128.898-.128.385.385-.128.898-.128,1.727.385,2.241l4.176,4.176L.385,10.594c-.514.512-.514,1.342,0,1.855s1.344.514,1.855,0l4.178-4.176,4.176,4.176c.514.514,1.342.514,1.855,0s.514-1.343,0-1.855l-4.176-4.177Z" style="fill:#1e0917; stroke-width:0px;"/></svg>